<?xml version="1.0" encoding="utf-8"?>
<!-- Generator: Adobe Illustrator 27.5.0, SVG Export Plug-In . SVG Version: 6.00 Build 0)  -->
<svg version="1.1" xmlns="http://www.w3.org/2000/svg" xmlns:xlink="http://www.w3.org/1999/xlink" x="0px" y="0px"
	 viewBox="0 0 1800 1122" style="enable-background:new 0 0 1800 1122;" xml:space="preserve">
<g id="Bg">
	<rect style="fill:#FFFFFF;" width="1800" height="1122"/>
</g>
<g id="Object">
	<g>
		<g>
			<path style="fill:#B8BABB;" d="M514.151,1065.531c-0.243-3.889,0.243-19.202,1.458-21.39c1.215-2.188,4.375-4.861,5.348-5.104
				c0.972-0.243,13.612-10.209,14.341-10.452c0.729-0.243,4.618-11.424,5.834-14.584c1.215-3.16,2.187-6.563,2.187-9.236
				c0-2.674,0.972-12.396,1.459-13.855c0.486-1.459,2.43-0.972,2.43-0.972l2.917-1.945c0,0,4.618-11.424,2.431-17.501
				c0,0,17.501-6.806,19.202-7.292c1.702-0.486,7.049-1.701,7.049-1.701s0.972-8.264,0.243-14.584
				c-0.729-6.32-4.132-93.337-6.805-109.866c-2.674-16.528-10.695-62.468-13.855-73.162c-3.16-10.695-20.174-24.549-25.522-30.626
				c-5.347-6.077-10.209-7.049-12.153-6.806c-1.945,0.243-5.834-1.702-7.049-3.889c-1.215-2.188-6.32-5.104-6.32-5.104
				s0.972-12.153,0.972-13.125c0-0.972-1.944-3.16-1.944-3.16s5.834-15.799,7.292-17.987c1.458-2.188,8.264-11.91,8.264-11.91
				s0,2.917,1.702,2.917c1.701,0,8.993-12.153,8.993-15.556c0-3.403-1.458-6.806-1.458-6.806s3.889-13.125,4.375-15.556
				c0.486-2.431,1.458-7.292,0.486-9.723c-0.972-2.431-3.403-5.104-3.889-7.535c-0.486-2.431-1.702-4.132-1.702-4.132
				s-5.833-6.32-7.778-7.049c-1.945-0.729-5.347-3.403-6.32-4.618c-0.972-1.215-6.32-1.459-7.049-1.701
				c-0.729-0.243-5.104-2.917-6.806-2.674c-1.702,0.243-4.132,0.486-5.348,0.729c-1.215,0.243-4.861-0.243-5.834,0
				c-0.972,0.243-3.646,1.215-4.618,2.187c-0.972,0.972-6.076-0.729-7.292,1.215c-1.215,1.944-2.188,2.188-3.889,3.646
				c-1.702,1.458-3.16,0-4.618,1.701c-1.458,1.702-4.618,8.264-5.104,10.695c-0.486,2.43-1.702,2.188-1.459,4.618
				c0.243,2.431,0,3.403-0.972,5.59c-0.972,2.188-1.701,0-0.972,2.188c0.729,2.188,0.243,4.861,0.243,4.861s-2.674,0.486-4.861,3.16
				c-2.187,2.674-0.972,5.347-1.215,6.806c-0.243,1.458-0.729,6.076-0.243,8.021c0.486,1.944,1.944,3.16,2.674,3.403
				c0.729,0.243,3.889-0.972,3.889-0.972s0,4.375,0.243,6.32c0.243,1.944-0.972,7.049-1.458,9.479
				c-0.486,2.431-2.431,9.723-2.431,9.723l-2.673,1.215c0,0-8.507,6.806-9.236,7.535c-0.729,0.729-1.702,1.215-1.702,1.215
				s-23.334,0-28.196-1.701c-4.861-1.702-18.23-2.917-20.66-1.945c-2.431,0.972-7.535-0.243-12.882,3.646
				c-5.347,3.889-10.452,5.834-15.07,16.528c-4.618,10.695-4.618,8.75-4.618,8.75s-9.723,18.716-12.882,25.036
				c-3.16,6.319-17.987,37.189-20.903,41.078c-2.917,3.889-8.507,18.473-9.966,20.174c-1.458,1.702-4.618,14.584-5.834,16.285
				c-1.215,1.701-4.618,19.202-4.618,22.119c0,2.917,1.702,9.479,1.702,9.479s4.618,4.618,4.132,8.507
				c-0.486,3.889,1.944,16.772,2.917,23.091c0.972,6.32,1.458,8.994,0.972,11.181c-0.487,2.187,0.486,12.882,1.458,16.285
				c0.972,3.403,4.375,11.667,5.347,14.341c0.972,2.674,3.16,3.403,3.16,3.403l-2.917,9.237c0,0,1.458,5.59,2.188,8.507
				c0.729,2.917,1.702,46.425,1.458,50.071c-0.243,3.646-1.702,25.522-1.702,30.14c0,4.242-5.331,75.536-8.272,95.602h187.236
				C510.145,1102.074,514.327,1068.356,514.151,1065.531z"/>
			<g>
				<path style="fill:#B8BABB;" d="M687.891,533.869c-0.592-0.86-1.506-1.721-1.506-1.721s-5.916-0.484-7.422-0.914l-0.108,1.667
					c0,0,0.914,0.376,1.398,0.86c0.484,0.484,0.646,0.968,1.022,1.13c0.377,0.161,1.56,0.538,1.99,1.022
					c0.43,0.484,0.968,0.538,1.506,0.914c0.538,0.377,3.227,0.645,4.249,0.753c1.022,0.108,2.689,0.323,2.689,0.323
					S688.483,534.73,687.891,533.869z"/>
				<path style="fill:#B8BABB;" d="M826.333,1086.443c-1.338-15.158-4.012-49.488-3.344-54.615
					c0.669-5.127,2.007-7.802,1.561-12.038c-0.446-4.235-2.229-41.909-2.006-45.252c0.223-3.344-0.446-11.592-0.446-11.592
					s7.802,11.369,11.146,14.713c3.344,3.344,6.241,1.115,6.91,1.337c0.669,0.223-2.452,6.242,0,11.592
					c2.452,5.35,4.904,10.923,5.35,13.152c0.446,2.229,0,10.031,0.223,12.261l-3.121,3.344c0,0-5.127-1.115-6.019,1.115
					c-0.892,2.229,0.669,3.79,0.669,3.79s-2.452,2.452-1.114,4.013c1.337,1.561,2.675,1.337,2.675,1.337s0.223,2.452,2.452,2.452
					c2.229,0,3.79-0.446,3.79-0.446s2.452,0,5.127-0.446c2.675-0.446,5.796-2.675,7.357-3.121c1.56-0.446,4.458-2.229,4.458-2.229
					l1.56-2.898c0,0,0.892-0.669,2.229-3.121c1.337-2.452,1.114-10.254,2.006-11.591c0.892-1.338,1.115-2.898,1.338-4.904
					c0.223-2.006-5.35-10.7-6.464-13.375c-1.115-2.675-5.35-14.044-5.35-14.044s6.911,2.229,8.917,0.892
					c2.006-1.338,1.56-5.573,1.56-5.573l4.682-0.223c0,0,6.019-5.573,5.35-5.796c-0.669-0.223-3.79-15.827-3.344-16.942
					c0.446-1.114-10.477-36.336-11.592-39.679c-1.115-3.344,0-44.361-1.338-55.953c-1.337-11.592-9.363-41.24-9.808-46.144
					c-0.446-4.904-1.784-23.407-3.121-26.75c-1.337-3.344-10.031-15.381-13.598-16.273c-3.567-0.892-9.586-3.567-9.586-3.567
					s-8.025-6.464-9.585-6.464c-1.561,0-2.006-1.338-2.006-1.338l-0.223-1.114l-5.573-3.121c0,0,1.783-2.675,2.006-5.796
					c0.223-3.121-0.223-4.458-0.223-4.458s2.229-3.121,2.675-4.904c0.446-1.783,0.446-1.783,0.446-1.783s6.911-4.235,10.031-10.923
					c3.121-6.688,4.905-14.044,3.79-19.617c-1.115-5.573-0.892-29.203-3.567-35.221c-2.675-6.019-8.694-15.604-12.929-18.948
					c-4.236-3.344-8.694-7.356-10.254-8.248c-1.56-0.892-6.242-2.229-6.242-2.229c-1.449-0.199-9.033-2.131-13.692-1.84
					c-4.658,0.291-7.57,3.785-10.191,6.406c-2.62,2.62-6.114,4.076-8.444,6.406c-2.329,2.329-4.659,5.532-6.697,8.444
					c-2.038,2.911-1.747,4.659-2.911,7.57c-1.165,2.912-0.291,9.317-2.038,10.773c-1.747,1.456-1.747,2.329-2.62,4.95
					c-0.874,2.621-0.291,3.494-0.291,6.405c0,2.912,1.456,9.317,1.747,11.938c0.291,2.62,1.456,3.494,1.747,5.532
					c0.291,2.038,2.912,6.697,4.077,9.609c1.165,2.911,0.583,3.494,0.583,5.241c0,1.747,0,12.229,0,12.229l-6.115,5.241
					c0,0-0.874-2.621-0.874-4.95c0-2.329-2.911-10.773-3.494-13.394c-0.583-2.62-1.747-3.785-1.747-6.988
					c0-3.203,0.874-7.57-0.291-11.646c-1.165-4.076-1.456-4.659-1.165-8.444c0.291-3.785-0.583-12.229-0.583-12.229l4.368-5.823
					c0,0-0.291-4.367-0.291-7.279c0-2.911-4.659-9.608-6.697-11.646c-2.038-2.038-6.988-7.862-5.532-10.482
					c1.456-2.62,3.203-6.697,1.747-13.685c-1.456-6.988-12.811-5.532-16.888-4.95c-4.076,0.583-4.659-12.229-4.659-12.229
					c-2.238-9.101-3.251-17.355-3.709-23.247l-0.507-3.43c0,0-4.892-30.738-5.561-34.974c-0.669-4.235-2.229-10.477-3.344-12.483
					c-1.115-2.006-6.019-5.796-7.579-6.242c-1.56-0.446-7.357-4.013-7.802-5.127c-0.446-1.115-4.681-4.013-4.681-4.013
					s3.344-8.248,0.669-10.031c-1.892-1.261-4.682,2.898-6.465,7.802c-1.783,4.904-2.006,8.248-1.783,10.254
					c0.223,2.006-0.446,6.019,0.223,9.808c0.669,3.79,0.892,6.91,2.675,8.248c1.783,1.338,7.579,6.019,9.586,7.802
					c2.006,1.783,3.343,4.235,3.343,4.235s1.338,18.948,2.675,30.094c1.337,11.146,2.675,32.323,4.681,39.457
					c2.006,7.133,2.452,8.694,2.452,10.254c0,1.561-2.675,3.121-3.567,5.127c-0.892,2.006-31.654,48.15-36.113,59.074
					c-4.458,10.923-15.605,28.756-16.496,30.763c-0.892,2.006-20.508,8.694-24.075,11.146c-3.567,2.452-9.808,24.298-11.814,25.636
					c-2.007,1.338,21.177,20.508,27.642,25.413c6.464,4.904,14.713,12.706,18.502,14.267c3.79,1.56,2.898,2.452,8.248,4.236
					c5.35,1.783,9.14,3.344,10.031,5.796c0.892,2.452,3.567,8.917,5.35,11.592c1.784,2.675-0.223,19.84-0.446,27.196
					c-0.223,7.356-3.121,27.865-3.344,31.654c-0.223,3.79-3.79,33.883-4.681,38.565c-0.892,4.681-5.35,38.565-6.465,45.253
					c-1.115,6.687-7.133,37.896-6.687,45.921c0.446,8.025-2.229,31.432-1.56,38.565c0.669,7.134-3.79,26.304-6.688,31.431
					c-2.898,5.127-9.14,25.19-9.14,25.19s9.794,3.657,17.278,5.908h173.872C827.326,1108.119,826.947,1093.404,826.333,1086.443z
					 M689.021,537.58c-1.022-0.108-3.711-0.377-4.249-0.753c-0.538-0.377-1.076-0.43-1.506-0.914c-0.43-0.484-1.614-0.86-1.99-1.022
					c-0.377-0.161-0.538-0.646-1.022-1.13c-0.484-0.484-1.398-0.86-1.398-0.86l0.108-1.667c1.506,0.43,7.422,0.914,7.422,0.914
					s0.914,0.86,1.506,1.721c0.592,0.86,3.819,4.034,3.819,4.034S690.043,537.688,689.021,537.58z M797.463,742.485
					c-0.365,1.094-0.608,2.552-0.608,2.552s-0.729-0.608-1.823-0.972c-1.094-0.365-2.795-0.243-2.795-0.243s0-1.337-0.243-4.375
					c-0.243-3.038,1.728-6.197,1.701-5.834c-0.122,1.701,1.458,1.215,2.431,1.58c0.972,0.365,0.608,0.972,0.729,1.944
					c0.122,0.972,0.486,1.701,0.729,3.403C797.827,742.242,797.827,741.391,797.463,742.485z"/>
			</g>
			<path style="fill:#B8BABB;" d="M1026.157,1120.159c0-2.917-0.324-5.51,1.944-6.482c2.269-0.972,5.51-3.241,6.158-7.13
				c0.648-3.889,1.621-13.936,1.621-13.936l23.334-9.399c0,0-32.409-65.465-34.353-70.975c-1.945-5.51-5.833-32.085-6.482-38.891
				c-0.648-6.806-4.537-52.178-5.185-60.604c-0.648-8.426-0.324-46.344-1.621-59.956c-1.296-13.611-2.593-21.065-3.241-26.899
				c-0.648-5.833-2.269-11.343-1.944-13.287c0.324-1.945,4.213-2.269,6.482,1.296c2.269,3.565,6.482,2.917,9.722,2.269
				c3.241-0.648,2.917-2.269,5.834-4.537c2.917-2.269,4.213,2.593,7.13-5.834c2.917-8.426,1.945-13.936,6.158-18.473
				c4.213-4.537,11.991-10.046,14.584-15.232c2.593-5.185-3.889-38.891-10.371-51.53c-6.482-12.64-19.445-57.039-20.093-66.438
				c-0.648-9.398-5.509-25.603-4.213-34.677c1.296-9.074,2.593-13.287,0.972-20.741c-1.62-7.454-1.296-10.047-3.565-12.639
				c-2.269-2.593-3.565-3.241-3.565-3.241s-2.917,5.185-4.537,4.861c-1.621-0.324-0.972-32.085-2.269-40.511
				c-1.296-8.426-1.621-45.696-3.565-49.585c-1.945-3.889-4.213-11.667-2.917-17.825c1.297-6.158,3.565-12.315,3.889-15.232
				c0.324-2.917,5.186-11.019,6.806-13.288c1.621-2.268,4.213-7.454,4.213-7.454s-4.213-2.917-6.806-0.324l5.186-10.371
				c0,0-1.296-3.889-7.13-0.972c-5.833,2.917-6.482,6.806-8.102,10.695c-1.62,3.889-8.426,15.88-9.723,18.149
				c-1.296,2.269-3.241,1.944-5.509,6.158c-2.269,4.213-4.537,10.047-4.537,10.047s-3.889-11.667-9.075-10.371
				c-5.186,1.297-3.889,1.944-1.621,5.834c2.269,3.889,5.509,11.019,6.158,13.936c0.648,2.917,2.917,7.778,5.186,10.695
				c2.269,2.917,5.185,2.269,5.834,8.102c0.648,5.834-0.324,35.974-0.648,46.992c-0.324,11.019-2.268,30.14-3.241,35.326
				c-0.972,5.185-1.296,12.963-2.269,14.908c-0.972,1.945-5.185,6.157-6.482,11.019c-1.296,4.861-7.454,12.963-6.806,23.982
				c0.648,11.019,1.62,9.723,1.62,9.723s-4.213,7.454-3.241,12.315c0.972,4.861,2.268,4.537,1.621,6.158
				c-0.648,1.621-5.186,5.509-6.482,8.75c-0.369,0.922-0.789,1.711-1.181,2.431c-0.306-2.973-0.932-5.849-2.06-8.264
				c-4.537-9.723-14.908-30.788-20.417-33.057c-5.509-2.269-24.306-3.889-26.251-2.593c-1.945,1.297-3.889,5.186-5.834,5.186
				c-1.944,0-4.537-0.324-4.537-0.324l-1.621,3.565c0,0-1.62,0.324-5.185,2.269l-5.834,0.972l-0.324,4.537
				c0,0-9.399,6.482-12.315,16.852c-2.917,10.371-3.241,26.899-9.399,34.677c0,0,3.809-3.824,6.065-9.4
				c-2.147,7.477-6.241,21.595-8.334,27.873l7.13-19.121c0,0,0.972,13.936-3.241,21.714c-4.213,7.778-21.714,29.492-26.251,35.326
				c-4.538,5.833-10.371,6.806-15.232,9.074l6.482-1.296c0,0-12.316,11.019-15.88,15.88c0,0,11.343-10.695,16.204-12.963
				c0,0-16.852,22.362-17.825,26.575c0,0,14.584-19.769,17.825-21.066c0,0-17.825,59.308-19.445,70.003
				c-1.62,10.695-12.963,67.734-13.612,72.595c-0.648,4.861-3.565,13.288,0,13.288c3.565,0,9.723,3.889,9.723,3.889l-1.296,7.13
				c0,0,4.537,3.889,11.343,4.213c0,0-0.325,27.871-0.972,31.76c-0.648,3.889-0.324,9.398,0.648,14.584
				c0.972,5.186,2.593,24.307,3.241,26.899c0.648,2.593,2.917,4.213,2.917,4.213s6.806,12.639,8.751,14.908
				c1.945,2.268,11.667,9.398,13.287,10.371c0.315,0.189,0.817,0.54,1.416,0.978c-3.17,17.55-6.436,37.752-6.601,47.311
				c-0.138,8.006,0.666,17.479,1.858,26.471h181.265C1025.918,1121.362,1026.157,1120.741,1026.157,1120.159z M851.094,1036.904
				c-0.2-0.937-1.002-3.873-3.185-3.6c0,0-4.537-8.102-4.861-10.047c-0.324-1.945-3.241-11.343-3.241-11.343s0-2.269,1.944-1.944
				c1.945,0.324,1.621,5.509,3.241,7.778c1.585,2.22,3.181,8.452,8.409,7.203C852.756,1028.234,851.96,1032.325,851.094,1036.904z
				 M963.284,692.041c-0.648,1.62-3.241-0.324-3.241,0.648c0,0.972-1.296,4.861-1.296,3.889c0-0.525,1.038-5.776,1.28-12.025
				C961.588,687.345,963.764,690.843,963.284,692.041z"/>
			<path style="fill:#B8BABB;" d="M242.411,1049.489c0.486-10.209,7.94-67.734,7.94-72.271c0-4.537,6.307-6.805,6.307-6.805
				l10.546-3.566l2.973,10.325c0,0-3.38,14.871,4.056,19.602c1.64,1.044,6.305,4.167,11.491,6.759
				c5.185,2.593,28.676-0.351,19.602-24.333c-4.863-12.854-8.015-17.15-9.894-18.372c-1.376,0.135-2.301,0.185-2.301,0.185
				s0.674-1.244,2.301-0.185c3.688-0.361,10.719-1.343,12.607-3.703c2.593-3.241,10.37-7.13,10.37-7.13l-0.648-11.019
				c0,0,7.778-1.296,11.019-3.241c3.241-1.945-40.186-110.838-44.076-123.153c-3.889-12.315-3.241-33.705-5.834-43.427
				c-2.593-9.723,0-23.334-3.889-27.872c-3.889-4.537-7.778-16.852-13.612-18.797c-5.833-1.944-13.612-8.426-16.204-9.722
				c-2.593-1.296-10.371-9.075-9.723-11.019c0.648-1.944-1.944-2.593-1.944-2.593l4.537-15.556l5.834-6.482
				c0,0,12.963-8.426,11.019-16.204l-3.241-3.241c0,0,1.296-7.13,3.241-11.019c1.944-3.889,0.648-14.26,0.648-14.26
				s-0.409-1.059-1.734-2.094c-1.325-1.036-2.029-3.313-2.692-3.81c-0.663-0.497-1.532-1.159-1.491-1.367
				c0.041-0.207,0.538-1.822,0.538-1.822s-2.071,2.733-2.568,2.775c-0.497,0.041,0.994-1.946,1.036-2.112
				c0.041-0.166-0.29-0.87-0.29-1.118c0-0.249,1.284-3.106,0.787-4.514c0,0-1.532,3.769-1.946,3.893
				c-0.414,0.124-0.952-0.663-0.952-0.663s1.366-3.479,0.952-4.804c0,0-2.153,2.94-2.609,2.775
				c-0.456-0.166,2.071-5.549-0.911-7.413c0,0,0.456,6.419-0.952,6.336c-1.408-0.083-3.189-4.1-3.396-4.762
				c-0.207-0.662,0.124-2.154-0.745-3.396c-0.87-1.242-2.071-2.319-3.23-3.064c0,0,3.52,4.017,1.367,3.934
				c0,0-0.953-2.567-2.278-3.23c-1.325-0.662-2.65-0.787-2.94-1.366c-0.29-0.58-1.242-1.077-0.828-2.526
				c0.414-1.449,1.864-2.402,1.864-2.402s-2.402,0.248-3.147,2.237c-0.745,1.987,0-0.207,0-0.207l0.994-2.112
				c0,0-2.112,0.952-2.775,1.988c-0.663,1.035-1.698,0.787-1.698,0.787s0.704-1.864,2.402-2.319c0,0-0.911-0.497-4.721,1.408
				c0,0-0.079-1.263,1.844-1.785c0.047-0.013,0.095-0.025,0.144-0.037c0.012-0.003,0.02-0.005,0.032-0.007
				c-0.049,0.012-0.081,0.019-0.081,0.019s-2.477-0.385-5.086,1.769c0,0,0.414-1.905,3.271-2.237
				c2.857-0.331-0.207-0.083-0.207-0.083s-6.792,1.118-8.863,4.514c0,0-2.195,3.065-2.195,3.189c0,0.124,1.408-5.798,5.591-6.999
				c0,0-5.922,0.456-7.91,5.011l1.16-3.603c0,0-3.23,4.017-3.603,7.455c0,0-0.994-3.355,0.704-5.467c0,0-5.301,3.893-4.721,8.407
				c0,0-1.038-3.444,0.423-6.025c-0.986,1.547-3.65,5.954-3.818,8.717l-0.331,0.994c0,0-1.035-4.845,0.663-7.082
				c0,0-5.011,5.963-4.845,9.276l-0.373-4.928c0,0-1.809,5.966-0.842,8.636c0,0-4.375,1.944-4.132,5.59
				c0.243,3.646-1.945,8.021-1.701,13.126c0.243,5.104-0.729,9.236-0.729,9.236s-1.458-1.459-2.917,1.701
				c-1.458,3.16-0.972,8.993-0.972,10.695c0,1.701,2.43,5.834,3.889,6.077c1.459,0.243,1.945,1.701,2.674,4.375
				c0.729,2.673,2.674,7.049,2.674,7.049l0.243,8.021l-6.563,10.695l-16.771-2.917c0,0-20.661-15.556-21.147-16.528
				c-0.486-0.972-0.972-2.673-0.972-2.673s-4.862-3.403-5.348-4.133c-0.486-0.729-22.605-35.001-29.168-38.404
				c-6.563-3.403-7.292-11.424-9.236-14.584c-1.945-3.16-9.237-28.439-10.209-31.598c-0.972-3.16,0-9.966,0-14.584
				s-1.944-8.264-1.701-13.125c0.243-4.861,2.431-24.063,2.431-24.063s-4.618-0.972-6.563-1.702c0,0,0.729-8.021,2.43-9.966
				c1.702-1.945,8.508-8.75,9.48-10.938c0.972-2.187,3.16-12.396,3.16-13.855c0-1.458,0.729-3.403,0.729-3.403
				s9.479-1.702,10.451-1.945c0,0,2.188-4.132-6.076-2.674l-3.646-1.701c0,0,12.153-0.729,14.827-1.215
				c2.674-0.486,3.402-3.403,0-3.646c-3.403-0.243-10.695,0.243-10.695,0.243s-0.972-3.403-3.16-3.16
				c-2.188,0.243-5.834,2.674-8.264,2.674c-2.431,0-6.806,0-6.806,0s17.501-19.202,17.744-23.091c0,0-1.216-4.618-5.591,0.729
				c-4.375,5.348-6.806,7.778-6.806,7.778s3.646-13.369,1.215-12.882c-2.43,0.486-9.237,16.771-10.695,19.688
				c-1.459,2.917-4.375,6.32-5.834,6.806c-1.458,0.486-4.132,0.972-4.861,3.889c-0.729,2.917-0.972,4.375-1.215,7.292
				c-0.243,2.917-0.486,10.938-1.459,15.07c-0.972,4.132-0.972,8.021-2.674,11.667c-1.701,3.646-3.889,6.806-3.646,8.264
				c0.244,1.459-2.187-0.486-2.187-0.486s-1.215,10.452-1.459,12.396c-0.243,1.944-2.674,9.236-1.701,15.556
				c0.972,6.32-2.188,13.126-2.188,18.716c0,5.59,3.403,31.355,3.16,39.619c-0.243,8.264-2.431,19.445-3.403,25.765
				c-0.972,6.32-15.07,81.184-15.799,91.636c-0.729,10.452-4.132,14.584-2.917,17.257c1.216,2.674-7.291,17.744-6.563,21.876
				c0.729,4.132-20.66,32.085-14.583,33.3c6.076,1.215,32.57-2.187,41.807-2.431c9.236-0.243,19.932-7.292,25.765-9.48
				c5.833-2.187,15.07-7.292,17.987-6.563c2.917,0.729,7.535,9.48,6.806,13.126c-0.729,3.646-6.32,21.39-8.993,27.953
				c-2.674,6.563-8.264,27.952-10.209,36.703c-1.945,8.75-1.945,14.827-3.646,19.445c-1.702,4.618-11.181,31.841-13.125,41.078
				c-1.944,9.237-8.021,44.238-9.479,56.391c-1.459,12.153-2.188,21.147-4.618,26.737c-2.431,5.591-7.049,33.786-9.966,43.995
				c-2.917,10.209-2.917,17.744-5.834,23.334c-2.917,5.591-7.535,17.501-10.452,22.119c-2.917,4.618-5.347,13.126-5.347,13.126
				s4.375,4.618,5.347,7.778c0.213,0.693,0.516,1.37,0.849,2.022H238C239.943,1096.352,242.08,1056.446,242.411,1049.489z"/>
			<path style="fill:#B8BABB;" d="M361.955,961.013c0,0,0.925-0.051,2.301-0.185C362.629,959.769,361.955,961.013,361.955,961.013z"
				/>
			<path style="fill:#B8BABB;" d="M1303.13,1121.923c1.459-7.292,1.944-12.64,1.459-17.015c-0.486-4.375-0.486-10.695-0.486-13.612
				s8.264-59.308,8.264-70.003c0-10.695,3.889-24.307,3.889-24.307l6.319,4.375l7.292-1.458c0,0-1.458,1.458-3.403,5.348
				c-1.945,3.889-1.945,14.584-1.458,17.987s-1.944,15.556-1.944,19.445c0,3.889,4.375,4.861,4.375,4.861s6.806-11.181,6.32-16.042
				s2.917-3.403,2.431-1.945c-0.486,1.458,1.944,5.833,1.944,10.209s1.945,4.375-1.458,7.292c-3.403,2.917-2.917,5.833-5.347,5.348
				c-2.431-0.486-4.861-1.945-6.806-0.486c-1.945,1.459-4.861-1.458-4.861,2.431c0,3.889-2.917,2.431,0,3.889
				c2.917,1.459,5.348,3.889,7.778,2.917c2.431-0.972,9.236-0.972,11.667-2.917c2.431-1.944,5.834-2.917,7.292-4.861
				c1.459-1.944,7.292-13.612,7.778-17.015c0.486-3.403-0.486-9.722-0.972-12.153c-0.486-2.431-3.403-12.153-3.403-13.612
				c0-1.458,2.917-3.889,2.917-5.347c0-1.458,1.458-6.806,1.458-6.806l17.015-2.431c0,0,23.82-2.917,27.71-4.861
				c3.889-1.945-1.458-29.168-2.431-35.001l4.375-2.43c0,0-7.778-51.53-8.75-59.794c-0.972-8.264-18.473-57.363-20.417-68.544
				c-1.945-11.181-7.292-32.085-10.209-39.376c-2.917-7.292-10.209-15.556-15.07-23.334c-4.861-7.778-18.959-10.695-23.334-14.098
				c-4.375-3.403-10.209-3.889-11.181-5.834c-0.972-1.944-2.917-5.347-2.431-8.264c0.486-2.917,0-10.695,0-10.695l-7.292-3.403
				c0,0,1.458-12.639,2.431-15.07c0.972-2.431,6.806-11.181,6.806-16.529c0,0,4.375-1.944,5.347-5.348
				c0.972-3.403,0.972-10.695,0.972-13.612c0-2.917-2.917-6.319-2.917-6.319s1.458-7.292,1.458-9.723
				c0-2.431,0.486-5.348-0.486-8.751c-0.972-3.403-1.944-8.264-3.889-9.723c-1.944-1.458-7.292-8.264-7.292-8.264
				s-5.834-7.292-12.153-8.264c0,0-10.208-1.458-12.639-0.972c-2.431,0.486,3.403-2.431,3.403-2.431s-4.861,0.486-7.778,2.431
				c-2.917,1.945-1.944-1.458-1.944-1.458s-6.806-0.486-11.667,4.862c-4.861,5.347-5.833,5.833-9.237,8.75
				c-3.403,2.917-1.458,4.861-4.861,9.236c-3.403,4.375-5.834,3.403-5.834,8.264c0,4.861,1.944,10.695,2.917,13.125
				c0.972,2.431,0,5.348,0,5.348s-3.403,5.347-2.431,10.209c0.972,4.861,4.375,9.723,5.348,11.667
				c0.972,1.945,4.861,0.972,4.861,0.972s3.403,7.292,3.403,10.695c0,3.403,0.972,12.639,0.972,12.639s-1.944,4.375-3.889,6.32
				c-1.944,1.944-8.264,9.236-8.264,5.347s8.75-8.264,7.292-10.209c-1.458-1.945-11.667-15.556-17.987-23.334
				c-6.32-7.778-23.334-24.306-26.737-23.82c-3.403,0.486-5.348,2.43-7.778-0.486c-2.431-2.917-23.82-64.169-25.765-69.517
				c-1.945-5.347-14.098-26.251-15.556-30.626c-1.458-4.375-1.458-5.834-1.945-8.75c-0.486-2.917-3.403-16.528-3.403-18.959
				c0-2.431,3.889-16.528,4.375-18.959c0.486-2.431,1.458-7.778,0-10.695c-1.458-2.917-3.889-8.264-4.862-10.209
				c-0.972-1.944,3.403-17.501,3.403-17.501l23.82-1.945c0,0,8.75-37.918,5.347-55.419c0,0-9.236-13.612-9.722-15.556
				c-0.486-1.944-0.486-1.944-0.486-1.944s-4.861,1.944-6.806,1.944s-12.153-1.458-12.153-1.458l-20.904-18.473
				c0,0-2.895,9.338-6.45,22.256c-2.294-3.274-5.125-6.026-8.62-7.834c-15.822-8.184-17.981-13.497-17.592-19.806
				c0.229,0.024,0.462,0.037,0.698,0.037c3.692,0,6.684-2.993,6.684-6.684c0-2.595-1.481-4.839-3.642-5.947
				c0.298-1.895,0.078-6.571,0.078-7.382c0-0.849,0.969-5.695,4.968-10.664c3.999-4.969,2.545-12.482,2.545-12.482
				c-0.242,1.696,0,8.362-3.03,8.725c-3.03,0.363-5.453,6.665-5.453,6.665c0-1.576-0.121-2.424,3.151-6.908
				c3.272-4.484,2.423-8.725,2.423-8.725c-0.848,1.939-1.818,3.757-3.999,5.695c-2.181,1.939-3.029,3.757-3.029,3.757
				c0.606-7.271,5.09-13.087,5.09-13.087c-0.363,0.485-2.181,2.181-4.12,3.878c-1.939,1.696-2.909,7.028-2.909,7.028l-0.121-3.029
				c1.939-6.786-0.606-8.967-0.606-8.967c0.121,1.576,1.697,3.878-0.727,7.15c-2.424,3.272-2.302,11.148-2.302,11.148
				c-1.818-3.635-0.97-8.119-0.97-8.119c-1.212,2.181-0.848,7.634,0.485,9.695c1.333,2.06,1.697,7.513,1.454,12.361
				c-0.069,1.367,0.075,2.587,0.317,3.65c-1.792,1.199-2.972,3.24-2.972,5.558c0,2.911,1.864,5.381,4.461,6.298
				c-0.182,4.173,1.224,11.082,10.852,16.266c7.293,3.927,12.325,7.107,16.314,13.801c-5.57,20.44-12.425,48.647-12.425,63.656
				l20.08,18.713l-0.602,1.805c0,0-3.41-0.602-4.013,3.009c-0.602,3.611-2.608,3.009-2.006,7.423
				c0.602,4.414-1.003,14.846,0.803,19.862c1.806,5.016,4.213,11.636,4.815,14.646c0.602,3.01,1.404,23.272,1.404,23.272
				l-1.806,2.006c0,0-0.201,13.241,1.204,19.26c1.404,6.019,4.213,43.936,5.818,50.958c1.605,7.022,7.423,65.403,10.232,74.632
				c2.809,9.228-0.803,50.757,0.602,62.394c1.404,11.636-4.013,19.862-0.802,26.683c3.21,6.821,3.611,9.429,4.815,14.846
				c1.204,5.417,4.815,15.849,6.42,17.856c1.605,2.006,6.821,8.226,9.028,8.025c2.207-0.201,3.21-1.404,3.21-1.404
				s-1.404,6.018-2.207,14.846s-7.022,33.705-8.025,36.313c-1.003,2.608-5.016,18.457-5.618,22.068
				c-0.602,3.611-1.806,8.426-2.407,9.63c-0.602,1.204-8.426,26.081-10.433,30.896c-2.006,4.815-9.83,52.563-9.63,67.61
				c0,0-24.772,51.133-27.688,84.676c-0.539,6.202-0.645,11.535-0.43,16.12h194.867
				C1303.12,1121.973,1303.125,1121.95,1303.13,1121.923z"/>
			<g>
				<path style="fill:#B8BABB;" d="M639.264,326.784c-2.579-2.279-3.969-3.603-3.969-3.603
					C635.701,323.876,637.144,325.148,639.264,326.784z"/>
				<path style="fill:#B8BABB;" d="M756.553,452.847c-0.032-0.016-0.069-0.029-0.109-0.042
					C756.513,452.835,756.553,452.847,756.553,452.847z"/>
				<path style="fill:#B8BABB;" d="M754.42,446.98c0.355-5.155-3.081-7.525-4.859-8.71c-1.778-1.185-10.844-8.059-11.555-9.303
					c-0.523-0.915-5.428-3.078-8.062-4.773c0.413-0.936,0.647-1.969,0.647-3.057c0-3.418-2.263-6.306-5.372-7.252
					c0.013-0.738-0.02-1.514-0.115-2.34c-1.099-9.576-9.164-22.412-17.977-28.613c-9.293-6.54-7.945-12.034-7.345-13.512
					c2.481,1.366,5.008,2.713,7.581,4.032c41.835,21.445,63.983,27.421,63.983,27.421L738.3,384.702l-1.758-11.25l17.226-31.992
					l-17.226-11.25l-7.031,5.976l0.352-9.14c0,0-17.226-15.469-35.155-12.305c0,0-17.578,27.422-16.523,37.968
					c0,0-28.187-17.648-38.92-25.927c8.49,7.503,29.972,25.434,57.961,41.206c-0.77,1.704-2.492,7.939,8.839,15.912
					c8.92,6.277,16.055,20.557,16.945,28.317c0.055,0.479,0.05,0.918,0.021,1.339c-0.007,0-0.014-0.001-0.014-0.001
					c-4.194,0-7.588,3.394-7.588,7.581c0,2.58,1.291,4.856,3.26,6.225c0.401,1.761,1.197,3.738,2.724,5.694
					c4.444,5.689,12.266,12.621,16.591,17.599c4.326,4.977,1.422,8.71,0.119,11.318c0,0,1.956-1.6,2.607-4.563
					c0.652-2.963-0.356-7.466-0.533-7.466c0,0,3.555,3.97,2.37,9.718c-1.185,5.748,0.059,3.733,1.422,6.163
					c0,0-1.6-3.082-0.711-5.274c0.889-2.192,1.066-7.17,0.118-9.718c-0.948-2.548-2.252-6.222-2.311-6.4
					c-0.059-0.178,8.77,4.622,9.599,10.429c0.83,5.807,2.607,6.459,3.555,7.17c0,0-3.555-8.236-3.496-11.91
					c0.059-3.674-0.711-5.57-2.904-7.762c0,0,4.977,0.889,5.57,5.748c0.561,4.598,2.34,4.474,3.032,4.699
					C755.97,452.596,754.109,451.485,754.42,446.98z"/>
			</g>
			<path style="fill:#B8BABB;" d="M219.249,319.578l-7.454-4.213l-4.861-42.779c0,0-52.502,50.557-58.66,55.743
				c0,0,2.593,33.381,8.75,52.502l14.692-16.435c1.348,3.187,2.937,6.158,4.753,8.631c5.138,6.997,4.732,15.151,3.633,20.455
				c-0.077-0.003-0.153-0.011-0.23-0.011c-3.311,0-5.995,2.576-5.995,5.752c0,0.943,0.241,1.831,0.661,2.616
				c-0.718,1.302-1.471,3.473-1.471,6.893c0,6.542-0.972,10.868-3.727,14.139c-2.755,3.271-1.62,8.4-1.62,6.964
				c0-0.105-0.486-3.799,1.783-5.698c0,0-0.648,3.693,0,7.597c0.648,3.904,0.162,5.065-1.296,6.436c0,0,3.565-1.583,2.593-5.381
				c-0.972-3.799,1.296-6.12,1.296-6.12s-0.486,4.959,1.458,8.969c1.945,4.01,2.917,6.12,2.917,6.12s-1.62-7.175-2.106-9.708
				c-0.486-2.532-0.486-5.381-0.486-5.381s3.565,3.798,4.051,8.019c0.486,4.221,0.81,5.381,3.241,6.858c0,0-2.107-5.381-1.62-7.808
				c0.486-2.427-1.458-5.592-1.62-6.331c-0.162-0.738,3.889,1.583,4.861,6.647l2.107,4.854c0,0-1.458-5.487-1.62-7.808
				c-0.162-2.321-1.458-4.115-1.945-4.959c-0.486-0.844-0.324-3.904,0-6.015c0.324-2.11,2.917-6.858,2.755-8.758
				c-0.132-1.549-0.157-5.556-0.249-7.839c1.243-1.054,2.032-2.591,2.032-4.308c0-2.268-1.372-4.225-3.361-5.161
				c1.038-5.772-0.127-14.417-9.279-29.902c-0.178-0.301-0.329-0.601-0.495-0.902l3.412-3.817l18.473,9.074
				c0,0,9.074-1.945,14.584-8.102c5.51-6.158,12.315-18.149,12.639-25.279C222.166,328.004,219.249,319.578,219.249,319.578z"/>
			<g>
				<path style="fill:#B8BABB;" d="M487.756,451.355l1.62-6.482c0,0-17.177-13.936-30.788-16.528
					c-13.612-2.593-23.982-6.482-23.982-6.482s-12.034,34.202-20.501,62.454c-0.083,0.016-0.161,0.032-0.244,0.047
					c-19.948,3.707-33.167,6.454-39.77,10.481c-1.011-0.734-2.25-1.172-3.595-1.172c-2.092,0-3.937,1.05-5.043,2.65
					c-3.518,0.832-18.278,5.619-7.217,25.731c12.487,22.704,19.298,16.574,28.607,13.849c9.309-2.724,13.168,1.362,14.531,2.951
					c0,0-2.497-7.946-15.893-4.768c0,0,10.217-3.633,13.396-5.449c2.907-1.661,9.218,0.853,10.972,2.511
					c-1.859-2.08-10.338-10.653-19.146-4.781c-0.681,0.454-6.13-1.589-8.4-2.043c0,0,11.806-2.497,16.12-2.952
					c4.314-0.454,3.179-5.676,2.724-8.401c0,0-1.589,7.265-9.536,7.947c-7.947,0.681-7.492-1.135-8.628-2.27
					s-4.087-1.362-7.038-2.271c-2.952-0.908-6.357-2.951-5.222-5.222c1.004-2.009,5.198-4.197,4.266-7.191
					c1.013-1.093,1.637-2.553,1.637-4.161c0-1.43-0.494-2.743-1.315-3.786c1.991-1.143,4.693-2.43,8.127-3.479
					c6.378-1.949,21.05-5.833,30.533-7.769c-5.008,16.747-8.727,31.32-7.884,35.292c0,0,20.741,13.288,24.306,15.556
					c3.565,2.269,40.511,12.964,40.511,12.964l4.861-25.279c0,0,17.177-3.241,21.065-7.454c3.889-4.213,19.769-33.381,22.038-39.863
					c2.268-6.482,2.268-6.482,2.268-6.482L487.756,451.355z"/>
			</g>
			<path style="fill:#B8BABB;" d="M990.658,216.297v-3.785l23.463-24.977l-59.58,43.714c-2.539-5.605-4.921-14.088-6.647-22.143
				c-1.32-6.162,2.733-11.167,6.357-14.282c0.863,1.09,2.182,1.803,3.68,1.803c1.773,0,3.298-0.99,4.102-2.437
				c2.094-1.094,2.093-6.575,3.179-8.057c1.178-1.606,2.57-3.212,5.247-7.067c2.677-3.855,8.674-7.924,8.674-7.924
				c-2.677-0.214-8.352,4.176-8.138,3.748c0.214-0.428,3.32-3.534,5.033-4.176c1.713-0.642,2.57-1.285,2.463-2.891
				c-0.107-1.606-0.75-3.748-0.75-3.748s-3.105,1.928-2.784,1.606c0.321-0.321,1.713-1.927,1.713-1.927l-2.463-1.82l-0.321,0.857
				c0,0-2.256,2.915-3.685,4.881c0.731-1.351,1.601-3.114,1.972-3.918c0.642-1.392,0.536-2.463,0.536-2.463s-2.463,4.39-3.962,6.532
				c-1.499,2.142-3.641,2.249-6.746,5.675c-3.105,3.427-1.606,5.568-1.178,8.674c0.294,2.131-1.114,4.086-2.034,5.119
				c-0.279-0.051-0.563-0.086-0.857-0.086c-2.602,0-4.711,2.109-4.711,4.712c0,0.38,0.057,0.744,0.142,1.098
				c-1.841,0.786-3.843,2.414-5.846,6.253c-5.534,11.344,2.078,25.511,6.573,32.314l-9.6,7.044l-49.198,45.413l32.168-17.787
				c2.649,13.246,22.706,40.872,22.706,40.872l6.434-6.055c0,0,0-12.489,0.378-13.624c0.378-1.135,5.298,8.704,5.298,8.704
				s7.19-7.19,9.083-10.596c1.892-3.406,43.521-45.792,43.521-45.792L990.658,216.297z"/>
			<g>
				<path style="fill:#B8BABB;" d="M1562.637,376.867l-13.465,11.823c0,0,7.637-15.273,8.74-16.983
					c-2.112,0.633-30.102-7.827-40.269-3.379c-10.51,4.598-19.377,11.495-19.377,11.495s-38.097-20.362-39.739-18.72
					c-0.509,0.509,2.026,24.202,4.513,46.305c-7.773-6.924-13.468-15.612-12.558-25.959c0.973-11.066,0.736-17.295-0.007-20.888
					c1.194-1.054,1.952-2.592,1.952-4.31c0-1.475-0.56-2.815-1.472-3.833c0.33-3.246-1.118-7.989-2.093-15.369
					c-1.134-8.588,4.699-20.417,4.699-20.417c-4.213,1.783-7.454,21.714-7.94,19.283c-0.486-2.431,1.134-9.074,2.431-12.639
					c1.296-3.565,2.755-9.723,2.107-9.885c-0.648-0.162-6.158,0.324-6.158,0.324v4.051l-1.782-4.213c0,0-3.403-0.648-1.944,0.972
					c1.458,1.62,0.324,7.454,0.324,7.454c0-4.699-4.213-10.533-2.593-7.292c0.084,0.168,0.163,0.357,0.237,0.565
					c1.345,3.788,0.95,13.935-1.047,24.228c-1.65,8.503,2.157,13.611,3.89,15.433c-0.103,0.43-0.163,0.877-0.163,1.339
					c0,3.177,2.575,5.753,5.752,5.753c1.068,0,2.064-0.296,2.921-0.803c0.224,1.233,0.251,2.588-0.085,4.044
					c-1.458,6.32-3.241,31.112,3.889,35.812c1.957,1.29,5.481,4.158,9.776,7.545c2.148,19.049,4.22,36.577,4.22,36.577
					s68.64,36.455,76.522,37.768l-2.627-42.695c0,0,3.613-4.926,4.598-5.912c0.985-0.985,17.078-32.185,18.063-33.827
					C1564.936,398.871,1562.637,376.867,1562.637,376.867z"/>
				<path style="fill:#B8BABB;" d="M1557.912,371.707c0.071-0.021,0.116-0.052,0.127-0.094
					C1558.068,371.496,1558.019,371.54,1557.912,371.707z"/>
			</g>
			<path style="fill:#B8BABB;" d="M1650.944,1118.517c-4.537-9.723-10.047-41.483-10.695-54.77
				c-0.648-13.288-2.917-57.039-5.833-65.79c-2.917-8.75-6.806-23.334-6.806-23.334l2.917-10.047c0,0,24.631,9.722,26.899,10.371
				c2.269,0.648,5.51,3.241,5.51,3.241l0.648,3.565c0,0,9.074,1.296,10.695,1.296c1.621,0,2.593,1.621,3.565,1.296
				c0.973-0.324,14.26-1.945,14.26-1.945v-4.213c0,0,4.213,0.648,4.537-2.917c0.324-3.565-3.241-17.176-4.537-20.417
				c-1.296-3.241-17.177-39.214-21.065-55.743c-3.889-16.528-27.871-96.902-29.816-107.273c-1.944-10.371-1.944-11.667-1.944-11.667
				s-6.482-16.852-10.046-21.389c-3.565-4.537-18.473-20.093-18.473-20.093s1.621-18.473-0.648-25.603
				c-2.269-7.13-5.51-16.204-5.51-17.177c0-0.972,3.241-7.454,2.917-8.75c-0.324-1.296-4.862-9.075-6.806-12.315
				c-1.944-3.241-5.185-6.806-7.778-8.426c-2.592-1.62-6.157-6.157-7.778-8.426c-1.62-2.269-9.074-4.862-11.343-5.834
				c-2.269-0.972-0.972-7.778-3.889-8.426c-2.917-0.648-14.908-0.648-15.881-0.973c-0.972-0.324-6.806-7.454-14.908-3.565
				c-8.102,3.889-5.51-1.62-10.046,2.593c-4.538,4.213-16.528,11.019-17.825,12.963c-1.296,1.945-8.75,5.834-11.343,11.343
				c-2.593,5.509-4.213,17.177-4.213,21.39c0,4.213,0.324,12.639,0.324,15.88c0,3.241,0.324,4.861,2.593,7.778s-2.593,7.13,0,8.426
				c2.593,1.297,5.833,3.889,7.13,6.158c1.296,2.269,0.648,5.51,3.565,5.833c2.917,0.325,7.454,4.537,9.399,5.51
				c1.944,0.972,6.158,5.185,6.806,7.13c0.648,1.944,2.917,7.13,2.917,7.13l-5.185,2.269c0,0-1.62-2.593-5.834-3.565
				c-4.213-0.973-7.778-1.945-10.047-3.889c-2.269-1.944-3.241-2.917-6.158-3.889c-2.917-0.972-4.537-3.889-4.537-3.889
				l-0.972-5.185c0,0-3.889,2.917-6.158,1.296c-2.268-1.62-2.593-3.565-3.889-4.537c-1.296-0.973-2.269-3.565-5.185-4.213
				c-2.917-0.648-4.537,1.296-4.537,1.296l-3.889-1.296l-4.213-2.593c0,0-2.917-4.537-2.917-5.51c0-0.972-1.296-9.398-2.917-10.046
				c-1.62-0.648-4.537-1.945-4.537-4.538c0-2.592-0.972-9.398-1.945-10.37c-0.972-0.972-1.62-3.241-2.917-5.185
				c-1.296-1.945-4.213-7.454-6.157-10.371c-1.945-2.917-8.103-8.75-8.103-8.75l-1.944-2.592c0,0-7.13-23.658-9.398-37.27
				c-2.269-13.612-3.241-33.705-3.241-35.325c0-1.621,2.593,0,2.269-2.593c-0.324-2.593-1.944-2.917-1.296-5.186
				c0.648-2.268,2.269-7.13,3.889-8.75c1.62-1.621,5.185-8.427,6.482-10.371c1.296-1.944,3.24-13.936,5.185-16.528
				c1.944-2.592,5.51-4.537,5.51-5.509c0-0.972-3.241-3.241-6.482-0.972c-3.241,2.269-8.102,8.102-8.102,8.102
				s-3.241-22.686-8.102-22.686c-4.957,0-1.62,7.778-0.324,11.019c1.296,3.241,1.296,10.371,1.296,10.371l-0.324,1.944l-1.945-1.944
				c0,0-1.62-9.723-4.213-9.723s-5.51,0.973-6.158,3.889c0,0-4.861-0.648-5.833,2.593c-0.972,3.241-0.972,3.241-0.972,3.241
				s-3.565,0-4.861,1.944c-1.296,1.944-2.269,6.806-1.621,8.102c0.648,1.296,0.324,9.074,0.648,12.315
				c0.324,3.241,0.972,9.398,0.972,9.398l1.62,3.241c0,0-3.241,0.648-2.268,3.241c0.972,2.593,2.917,1.944,2.917,1.944
				s1.296,6.158,0.972,9.399c-0.324,3.24-2.917,32.732-2.269,38.566c0.648,5.834,0.324,26.575,1.62,31.112
				c0,0-21.065,20.418-20.417,23.983c0.648,3.565,2.917,14.908,5.186,20.094c2.268,5.185,5.833,64.817,8.426,75.836
				c2.592,11.019,10.695,35.002,14.26,43.427c3.565,8.426,14.908,51.206,22.686,56.391c7.778,5.185,12.315,5.833,13.936,5.185
				c1.62-0.648,6.806,5.834,6.806,5.834s-2.269,47.316-3.565,56.391c-1.296,9.074-7.13,78.753-7.778,85.883
				c-0.648,7.13-4.213,56.715-4.213,61.9c0,2.655,0.51,10.236,1.051,17.743h213.51
				C1651.86,1120.724,1651.426,1119.548,1650.944,1118.517z"/>
		</g>
		<path d="M1767.611,1121.964c2.242,0,14.199-5.231,14.199-5.231s-8.594-34.375-26.529-73.608
			c-17.935-39.233-41.848-92.29-76.971-131.149c0,0,4.11-8.594,4.11-11.957c0-3.363,2.615-11.957,2.242-13.451
			c-0.374-1.495-11.957-13.452-14.198-13.452s-13.825-4.484-17.188-4.857c-3.363-0.374-4.484-2.242-7.099-1.868
			c-2.616,0.374-6.726-0.374-6.726-0.374s0.747-19.803-1.121-27.276c-1.868-7.473-5.978-11.209-4.11-13.078
			c1.868-1.868,4.11-7.847,4.11-10.836c0-2.989,2.242-6.352-0.747-8.594c-2.989-2.242-5.978-7.473-8.967-8.22
			c-2.989-0.747-1.495-2.615-4.11-5.978c-2.616-3.363-4.11-7.846-5.978-8.594c-1.868-0.747-4.11-0.747-5.231-3.736
			c-1.121-2.989-3.736-10.836-3.736-10.836l35.309-1.049v6.721c-2.407,0.571-4.203,2.722-4.203,5.304
			c0,1.658,0.754,3.126,1.92,4.128c-0.577,2.741-1.36,7.276-1.36,11.705c0,7.006,0,36.431,0,36.431s2.154,13.646,1.593,17.035
			c0.431-1.451,1.43-5.191,1.209-8.067c-0.28-3.643,0.841-7.566,0.841-7.566l1.681,17.935l0.841-3.083l2.242,3.643l1.681-4.204
			l1.401,3.924c0,0-1.121-13.451-1.401-18.215c0,0,3.363,13.171,6.165,14.852c0,0-5.324-17.655-6.165-23.82
			c-0.841-6.165-0.56-14.852-0.841-17.375c-0.28-2.522,1.962-13.451,1.121-15.693c-0.547-1.461-1.332-5.175-1.813-7.59
			c1.105-1,1.813-2.431,1.813-4.039c0-3.018-2.446-5.464-5.464-5.464c-0.048,0-0.092,0.013-0.14,0.014v-6.607l1.308-0.039
			l4.11-0.374c0,0-35.496-44.464-37.364-44.464c-1.869,0-117.699-1.868-117.699-1.868l31.386,42.595l-6.352,16.814
			c0,0-4.857,9.341-2.989,12.704l-10.089-0.747l-2.989-4.857l-10.088-0.747c0,0-1.121,0.747-2.242,0.374
			c-1.121-0.374-9.715-4.11-11.209-4.484c-1.495-0.374-5.978-4.11-7.473-5.231c-1.494-1.121-2.989-9.715-4.484-13.452
			c-1.495-3.736-6.352-12.33-10.836-11.209c0,0-3.363-4.484-0.747-9.341c2.616-4.857,1.868-13.451,1.868-13.451l6.352-1.495
			c0,0,4.484-14.572,2.616-24.286c-1.868-9.715-4.484-7.473-5.978-7.473c-1.495,0,0.747-8.22,0.747-8.22l-2.242-5.605
			c0,0-2.615-5.978-1.121-5.978c1.495,0,0-2.989,0-2.989l21.426-9.62v6.726c-2.471,0.058-4.46,2.07-4.46,4.555
			c0,1.532,0.761,2.88,1.919,3.708c-0.916,1.879-2.496,5.401-2.344,7.073c0.213,2.34,2.548,14.428,1.487,21.968
			c-1.062,7.539,0.849,15.469,0.849,15.469v-6.5l2.124,6.759l0.85-1.689l1.274,1.43l1.062-0.52l2.761,0.78l0.213-3.38v-3.25
			c0,0,1.487,6.369,4.46,6.889c0,0-4.884-11.569-4.672-14.689c0.213-3.119,1.274-10.919,0.85-13.388
			c-0.425-2.47-0.85-8.969-0.85-10.659c0-1.585-1.308-6.031-1.996-7.004c0.705-0.803,1.147-1.844,1.147-2.997
			c0-2.267-1.656-4.134-3.823-4.491v-7.172l14.342-6.439c0,0-56.42-52.684-68.003-56.421c0,0-82.949,35.87-98.643,50.816
			c0,0,36.244,32.507,43.343,37.738c0,0-1.121,5.605-0.747,8.22c0.374,2.615,2.989,0.374,1.868,4.11
			c-1.121,3.737-3.363,4.857-2.989,6.726c0.374,1.868,0.374,2.989,0.747,4.484c0.374,1.495,1.121,4.484,0.374,7.847
			c-0.747,3.363,4.857,15.319,7.099,19.056c2.242,3.736,5.978,2.242,5.978,2.242s5.605,13.078,7.473,15.693
			c1.868,2.615,5.231,2.989,5.605,5.978c0.373,2.989,0.373,3.363,0,7.473c-0.374,4.11-1.495,6.726-1.495,6.726
			s-14.572,3.363-17.188,4.484s-2.989,2.616-9.715,3.737c-6.725,1.121-10.836,1.868-14.572,2.615
			c-3.736,0.747-11.209,3.363-13.825,3.737c-2.616,0.373-6.726-1.495-10.088,1.121c-3.363,2.615-10.462,4.11-13.451,10.088
			c-2.99,5.978-5.605,8.22-5.605,8.22s-9.341-24.287-10.088-35.496c-0.02-0.29-0.056-0.582-0.096-0.874
			c0.37-1.445,0.47-3.983,0.47-3.983l2.522,7.006v-7.006c0,0,0.56,2.242,5.044,4.203c0,0-4.203-7.286-6.726-14.852
			s-2.803-9.528-2.803-9.528s5.885,12.61,9.248,15.132c0,0-10.649-21.858-11.209-27.183c-0.561-5.324-5.044-14.012-5.324-17.655
			c-0.127-1.643-0.538-3.226-0.951-4.472c0.585-0.685,0.951-1.563,0.951-2.534c0-1.805-1.226-3.31-2.885-3.767
			c-1.192-4.686-3.311-12.425-5.01-15.452c5.712-2.465,11.567-4.804,14.723-5.512c-3.898,0.627-15.477,2.47-18.877,2.779
			c-4.11,0.374-23.166,4.484-28.023,5.231c-4.857,0.747-19.056,5.979-22.045,5.605c-2.989-0.374-8.967,0.747-13.451,1.868
			c-4.484,1.121-29.144,9.715-33.254,10.462c-4.11,0.747-11.957,2.242-14.946,3.737c-2.989,1.494-11.957,5.978-11.957,5.978
			l33.628-8.22c0,0,2.242,5.231,2.242,6.726c0,1.494,1.868,7.473,1.868,11.583c0,4.11,0.747,14.946,1.495,17.935
			c0.747,2.99,0.747,2.99,0.747,2.99s-7.099,15.319-5.978,22.045c1.121,6.726,0.747,16.067,12.33,23.166
			c0,0,5.231,11.583,4.857,12.704c-0.373,1.121-3.363,1.495-3.363,1.495s-4.484-7.1-11.21-7.1c-6.725,0-17.188,1.121-21.298,2.242
			c-4.11,1.121-8.967,3.737-10.836,5.231s-3.737,3.736-3.737,3.736l-1.494,1.495c0,0-5.605-8.594-9.341-10.088
			c-3.737-1.495-10.462-4.484-14.199-5.231c-3.736-0.747-7.846-3.363-10.462-5.231c-2.616-1.868-5.978-2.989-9.341-3.363
			c-3.363-0.374-4.11-1.121-6.726-2.615c-2.616-1.494-5.978-3.363-7.847-4.484c-1.868-1.121-1.868-6.352-1.868-7.846
			c0-1.495-3.363-5.605-3.363-5.605s-0.374-9.715,1.121-12.704c1.495-2.989,5.978-14.198,5.605-22.419c0,0,3.363,0.374,4.484-2.616
			c1.121-2.989,2.242-10.089,2.242-12.704s-0.374-7.847-1.495-9.341c-1.121-1.495-3.736-3.736-4.11-5.231
			c-0.374-1.495,0.747-5.978,0-8.594c-0.747-2.616-1.495-7.473-2.616-9.341c-1.121-1.869-1.495-30.639-1.495-30.639
			s11.3-0.664,19.604-0.996v3.533c-2.193,0.236-3.911,2.192-3.911,4.599c0,1.233,0.457,2.346,1.19,3.178
			c-0.401,2.322-0.765,6.21-0.538,12.386c0.399,10.884,0.799,22.749,0.692,28.568c-0.009,0.515-0.023,0.983-0.041,1.398
			c-0.217,5.11-0.869,11.15-0.869,11.15s1.738-11.848,1.738-15.332c0-3.484,0.869,16.493,0.869,16.493l2.172,1.161l1.738-7.898
			l0.217,7.434l2.173,0.929l-0.652-15.796l2.824,16.261l1.304-0.697l1.304,0.697l-2.173-12.544c0,0,4.997,8.595,7.387,8.595
			c0,0-6.083-6.272-8.691-17.423c-2.607-11.15-1.738-22.301-2.172-24.856c-0.344-2.021,0.395-8.537-0.14-11.866
			c0.228-0.565,0.357-1.185,0.357-1.839c0-2.247-1.493-4.122-3.476-4.552v-3.63c3.54-0.131,6.339-0.185,7.116-0.074
			c2.615,0.373-0.374-1.868-0.374-1.868s-22.467-12.956-23.54-13.451c-4.857-2.242-11.957,1.495-13.825,1.495
			c-1.868,0-77.718,6.352-81.455,6.725c-3.737,0.374-18.309,0.374-21.298,0.748c-2.989,0.373-2.989,0.373-2.989,0.373
			s9.341,9.342,14.199,11.957c4.857,2.615,19.056,14.572,19.056,14.572l1.868-0.374c0,0,1.494,30.639,2.615,34.749
			c1.121,4.11,4.484,8.968,4.484,8.968l-5.231,2.989c0,0,0,6.352,1.121,8.594c1.121,2.242,2.989,7.099,3.363,9.715
			c0.374,2.616,2.989,6.352,4.484,6.352c1.494,0,3.736-0.747,3.736-0.747s2.616,6.352,3.737,8.594
			c1.121,2.242,0.374,6.352,0.374,7.473s-7.099,8.594-8.22,10.462c-1.121,1.868-2.242,4.484-2.242,4.484s-17.561,3.737-20.177,4.484
			c-2.616,0.747-17.935,4.484-19.43,4.484c-1.494,0-7.099,0.747-9.341,1.121c-2.242,0.374-6.352,2.242-9.341,2.989
			c-2.989,0.747-6.726,2.615-9.341,4.484c-2.615,1.868-7.847,2.242-10.462,5.231c-2.616,2.989-5.605,6.352-7.847,8.968
			c-2.242,2.615,4.857-11.583,4.11-18.682c-0.747-7.099-0.747-14.946-1.495-19.056c-0.747-4.11-5.978-17.935-6.352-20.924
			c-0.374-2.989,1.121-4.484,1.495-9.341c0.373-4.857-1.495-8.594-0.374-11.957c1.121-3.363,3.363-3.736,3.363-3.736
			s10.759-4.002,21.564-7.158v3.83c-1.912,0.335-3.363,1.935-3.363,3.867c0,0.759,0.234,1.462,0.622,2.063
			c-0.553,2.086-1.266,5.101-1.599,7.877c-0.586,4.876-1.563,13.879-1.758,15.754c-0.091,0.872-0.351,3.285-0.642,5.787
			c-0.335,2.879-0.712,5.876-0.921,6.779l1.563-6.94c0,0-1.758,16.505-2.345,19.505c-0.586,3.001-0.782,9.565-0.782,9.565
			s2.54-2.813,2.54-2.063s1.563,3.001,1.563,3.001l1.954-4.501c0,0,1.758,3.001,1.758,3.751c0,0.75,1.172-12.753,1.172-12.753
			s1.954,7.314,3.517,10.128c0,0-3.322-12.753-2.736-21.006c0.586-8.252,2.345-17.63,1.954-20.068
			c-0.391-2.437-0.781-10.494-0.586-13.124c1.691-0.487,2.931-1.974,2.931-3.755c0-2.115-1.741-3.827-3.921-3.921v-4.045
			c7.555-2.172,14.984-3.862,18.615-3.409c0,0-19.056-11.21-26.529-14.198c-7.473-2.989-41.474-20.551-45.958-20.924
			c-4.483-0.373-29.144,1.868-36.617,3.736c-7.473,1.868-35.87,6.726-39.98,8.967c-4.11,2.242-17.188,7.473-17.188,7.473
			s10.836,5.605,13.452,6.726c2.615,1.121,8.22,5.978,14.198,8.22c5.978,2.242,16.067,8.968,16.067,8.968v19.43
			c0,0-3.363,11.956-4.484,14.198c-1.121,2.242-1.121,6.352-1.495,10.463c-0.374,4.11,1.868,15.693,3.737,19.803
			c1.868,4.11,4.484,11.583,6.725,14.199c2.242,2.616,5.978,7.473,6.352,8.594c0.373,1.121,0.747,16.067,0.747,16.067
			s-19.76,0.471-25.508,1.148c0,0-3.381-1.184-3.551-2.706c-0.169-1.521,0.338-3.043-1.015-5.242
			c-1.353-2.198-7.27-8.116-10.314-8.793c-3.044-0.676-14.034-3.043-15.218-2.705c-1.183,0.338-2.705,2.536-3.72,2.874
			c-1.014,0.338-5.072,1.353-6.763,1.522c-1.691,0.169-2.706,1.691-2.706,1.691s-8.454-14.879-10.483-16.232
			c-2.029-1.352-4.058-2.367-5.073-3.213c-1.015-0.845-3.043-2.198-4.734-2.536c-1.691-0.338-8.792-4.058-10.822-4.734
			c-2.029-0.677-7.44-2.367-8.454-3.551c-1.014-1.184-2.367-2.536-4.227-3.043c-1.86-0.507-8.285-1.86-12.85-2.705
			c-4.565-0.846-12.005-1.691-13.189-2.198c-1.183-0.507-8.792-1.015-8.961-1.691c-0.169-0.676-1.184-0.845-2.198-2.367
			c-1.014-1.522-3.382-1.691-3.382-3.382c0-1.691-2.706-24.01-3.382-27.899c-0.676-3.889,0.508-4.227-1.353-9.976
			c-1.86-5.749-0.507-5.58-3.044-9.807c-2.536-4.227-2.536-5.411-3.213-8.623c-0.676-3.213-1.522-8.623-1.859-11.16
			c-0.339-2.537,1.183-3.044,2.198-4.058c0.546-0.546,12.688-9.263,23.82-17.281v4.628c-2.303,0.28-4.094,2.219-4.094,4.597
			c0,1.821,1.055,3.38,2.577,4.145c-0.708,2.578-1.718,6.906-1.893,11.187c-0.274,6.708-1.916,30.938-2.054,34.223
			c-0.126,3.026-0.137,9.988-0.565,12.782c0.436-2.031,1.286-6.091,1.387-7.306c0.137-1.643-0.411,9.582-0.411,9.582
			s2.327-12.047,2.327-11.636c0,0.41,0.274,10.267,0.274,10.267l1.78-0.548l1.232,2.875l0.547-4.244c0,0,1.369,3.285,1.78,3.559
			c0.411,0.274,1.506-2.875,1.506-2.875s0.684-16.016,0.684-15.606c0,0.411,1.78,14.51,3.148,16.701c0,0-1.232-12.868-1.095-15.88
			c0,0,0.958,10.541,3.012,13.689c0,0-1.506-12.594-1.369-15.606c0.137-3.012-0.821-10.13-1.095-11.773
			c-0.274-1.643-1.232-8.487-1.506-11.225c-0.274-2.738-0.684-6.845-0.684-9.035c0-2.191-0.411-4.244-0.684-5.476
			c-0.221-0.992-0.795-3.035-1.297-4.228c1.034-0.853,1.708-2.129,1.708-3.576c0-2.378-1.791-4.318-4.094-4.597v-5.436
			c9.116-6.569,17.256-12.459,17.331-12.685c0.169-0.507-92.49-43.455-98.746-43.793c-6.256-0.338-67.634,46.33-69.156,49.542
			l42.441,18.43c0,0-1.015,8.285-1.353,9.469c-0.338,1.184-7.102,9.131-8.454,11.16c-1.353,2.029-9.976,10.652-10.314,17.923
			c0,0,2.029-9.469,14.372-20.628c0,0-9.131,18.261-16.232,22.826c-7.102,4.565-18.43,10.652-19.783,11.16
			c0,0,15.894-3.382,29.759-18.938c0,0-9.323,16.91-14.848,23.432l6.393-6.524c0,0-4.396,10.652-5.749,12.682
			c-1.353,2.029-3.551,4.396-4.735,5.411c-1.183,1.014-2.536,1.184-4.396,3.551c-1.859,2.367-6.256,9.638-6.256,9.638
			s7.271-9.3,8.792-9.469c1.522-0.169,0.676,3.551,0.169,4.565c-0.507,1.014-1.86,4.565-3.212,5.242
			c-1.353,0.676-2.537,0.169-6.594,1.522c-4.058,1.353-4.058,1.353-7.947,3.382c-3.889,2.029-11.16,2.705-13.696,3.551
			c-2.536,0.845-7.947,2.198-9.131,1.691c-1.183-0.507-6.087-2.367-7.778-2.367c-1.691,0-8.117,1.184-8.792,1.184
			c-0.677,0-11.667-1.184-13.865-1.522c-2.198-0.339-7.609-0.507-8.623-1.183c-1.014-0.677-5.073-1.184-6.594-1.184
			c-1.522,0-7.778,1.184-10.145,3.213c-2.367,2.029-3.212,1.353-3.212,0.676c0-0.676,0.507-11.16,0.845-11.667
			c0.338-0.508,6.764-14.203,7.271-20.967c0,0,2.367-0.169,4.565-5.411c2.198-5.241,2.874-7.101,3.551-8.623
			c0.676-1.522,2.536-17.754,1.691-21.474c-0.845-3.72-3.889-7.102-3.889-8.116c0-1.014-0.508-1.86,0.845-3.382
			c1.353-1.522,0.846-2.198,2.029-3.213c0.585-0.501,11.524-8.965,22.447-17.402c0.112,1.195,0.222,2.567,0.292,3.939
			c-1.805,0.409-3.164,2.203-3.164,4.355c0,1.35,0.546,2.545,1.391,3.359c-0.659,0.837-1.443,2.43-1.512,5.322
			c-0.121,5.059-0.972,20.919-0.972,23.106c0,2.188-0.486,14.083-0.85,17.227c-0.364,3.145-2.065,6.426-2.065,6.426
			s2.308-1.19,3.023-8.278l-0.593,7.458l1.701-9.708l-0.243,9.024l1.458-0.547c1.579,0.82,2.429,0.273,2.429,0.273l0.972-1.231
			c0,0,0.121-10.391,0.121-12.852c0,0,1.215,11.485,1.093,12.579c-0.121,1.094,0.607-1.914,0.607-1.914l0.85,0.41
			c0,0-0.121-15.723-0.607-18.868c-0.473-3.064-0.255-11.966-0.356-12.799c0.182,0.831,2.347,9.754,3.028,11.159
			c0,0-2.186-9.571-2.308-17.09c-0.085-5.264-0.587-7.977-1.172-9.274c1.136-0.78,1.901-2.175,1.901-3.782
			c0-2.454-1.767-4.443-3.948-4.443c-0.066,0-0.127,0.018-0.193,0.022c-0.079-1.358-0.211-2.83-0.421-4.229
			c11.033-8.522,21.899-16.903,21.899-16.903l-98.577-46.329l-72.369,51.233c0,0,40.242,22.319,44.131,24.348
			c0,0-1.183,2.705-2.536,3.72c-1.353,1.015-2.198,2.367-2.198,2.367l2.705-1.521c0,0-3.551,3.889-4.058,4.396
			c-0.507,0.508,2.705-1.015,2.705-1.015s-1.691,4.058-3.043,6.764c-1.353,2.705,1.353-0.845,1.353-0.845s0,2.874-1.014,5.072
			c-1.014,2.198,0.676,2.705,0.676,2.705s1.184,3.382,1.353,4.058c0.169,0.676,0.676,4.227,1.184,4.227
			c0.507,0,1.691,2.537,1.522,3.044c-0.169,0.508-3.72-3.551-4.058-0.676c-0.338,2.874,0,5.242,1.86,9.3
			c1.86,4.058,3.889,9.637,4.566,10.99c0.676,1.353,2.874,5.58,3.212,6.256c0.338,0.676,2.705,11.16,4.396,13.696
			c0,0-2.029,4.227-3.551,7.271c0,0-29.59,0.676-36.184,4.058c0,0-6.932-2.367-10.145-1.691c-3.212,0.676-15.387-1.184-15.894-2.029
			c-0.507-0.845-6.256-12.512-9.13-11.666c-2.875,0.845-12.005-0.169-16.57,6.763c0,0-6.763-0.338-8.285,6.933
			c0,0-9.131-2.705-15.725-1.691c-6.594,1.014-18.599,0.338-24.349-0.339c0,0,5.749-8.961,7.102-11.329
			c1.353-2.367,0.676-3.213,1.691-4.227c1.014-1.015,4.058-5.242,4.904-6.256c0.845-1.015,3.72-6.256,5.58-9.3
			c1.86-3.043,3.044-4.396,3.044-5.58c0-1.184-3.889-5.411-4.566-5.58c-0.676-0.169,0.507-4.396,0.845-4.904
			c0.338-0.507,3.043-4.058,3.213-4.565c0.169-0.507,2.367-11.329,2.705-13.189l26.406-5.626c0.131,1.87,0.246,4.338,0.192,6.806
			c-2.253,0.132-4.039,1.748-4.039,3.743c0,1.094,0.544,2.071,1.4,2.759c-0.513,0.841-1.247,2.358-1.501,4.466
			c-0.407,3.369-2.444,20.835-3.361,24.027c-0.916,3.192-1.935,10.196-2.037,10.55c-0.102,0.355,0.815,0.887,0.815,0.887l1.12-0.975
			l2.138,2.394l0.306-1.951l0.611,1.862l1.731-0.443l1.12-1.685l0.306,1.153l1.935,0.532c0,0,2.139-33.513,2.139-36.616
			c0-2.038-0.175-3.154-0.296-3.683c1.325-0.645,2.231-1.862,2.231-3.277c0-1.961-1.727-3.554-3.926-3.733
			c0.05-1.676-0.09-3.93-0.576-6.881l22.491-4.792c0,0-61.04-71.692-65.267-72.031c-4.227-0.339-104.495,18.938-104.495,18.938
			s36.09,41.986,38.42,43.397c0,0-5.917,17.012-5.178,18.121c0.74,1.11-7.396-1.849-8.506,1.849
			c-1.109,3.698-1.849,8.876-1.479,14.423c0.37,5.548,2.219,12.204,4.068,13.314c1.849,1.11,5.917,2.219,5.917,2.219
			s-2.219,20.71-2.589,23.299c-0.37,2.589-0.37,2.589-0.37,2.589s-2.589,1.849-4.438,1.479s-4.808,0.37-5.917,0.74
			c-1.109,0.37-24.038-2.959-32.175,1.109c0,0-18.491,0.37-22.559,0.74c-4.068,0.37-15.902-1.109-20.34,0.74
			c-4.438,1.849-16.272,3.698-17.752,4.438c-1.479,0.739-10.355,2.958-14.053,6.287c-3.698,3.328-13.313,24.778-13.313,25.888
			c0,1.109,4.068,5.917,6.657,8.876c2.589,2.959,6.287,4.438,6.287,4.438s-2.589,6.287-12.205,33.654
			c-9.615,27.367-18.491,53.624-24.039,88.018c-5.547,34.394-14.793,109.838-15.532,115.385c-0.74,5.547-3.699,25.148-5.177,28.476
			l2.958,3.329l-2.588,6.656c0,0,10.355,0.37,13.683,1.849c3.328,1.479,10.725,0.74,13.684,0.74s2.959,0,2.959,0l2.958,10.355
			l2.589,1.109c0,0-0.663,3.322-1.264,7.115h494.11c-0.073-0.852-0.137-1.624-0.189-2.278c-0.747-9.341-5.231-48.574-9.341-53.805
			l16.067,4.11c0,0,0.782,34.676,0.821,51.973h186.463c-1.545-14.228-3.039-28.8-3.231-32.263c-0.37-6.657-2.219-21.82-2.219-21.82
			s6.657,4.808,10.725,7.766c4.068,2.958,12.204,4.068,12.204,5.177c0,0.976-0.858,24.836-2.072,41.139h162.206
			c0-0.028-0.001-0.061-0.001-0.089c0-10.355,0-17.751,0-17.751l6.287-1.109c0,0,0.235,8.698,0.525,18.949h803.619
			C1766.869,1121.977,1767.315,1121.964,1767.611,1121.964z M1283.366,748.318c-2.242-4.484-0.374-3.363-1.495-7.847
			c-1.121-4.484-5.605-17.935-6.726-20.551c-1.121-2.616-2.616-6.726-2.989-9.341c-0.374-2.615-1.121-7.846-1.121-7.846
			s7.062-3.377,14.596-6.65c0.871,2.13,3.387,8.643,4.36,15.002c-1.986,0.194-3.544,1.848-3.544,3.885
			c0,1.265,0.609,2.378,1.538,3.095c0.189,3.674,1.198,10.796,1.824,13.719c0.841,3.923,2.802,13.732,2.802,15.693
			c0,1.962,1.401,11.209,1.401,11.209l0.751,2.377C1289.921,755.456,1284.564,750.713,1283.366,748.318z M1296.18,762.749
			l-1.044-5.744c0,0,1.214,3.64,2.634,7.78C1297.258,764.098,1296.726,763.419,1296.18,762.749z"/>
	</g>
</g>
</svg>
